<svg xmlns="http://www.w3.org/2000/svg" version="1.1" xmlns:xlink="http://www.w3.org/1999/xlink" width="512" height="512" x="0" y="0" viewBox="0 0 48 48" style="enable-background:new 0 0 512 512" xml:space="preserve" class=""><g><path fill="#ebe9ac" fill-rule="nonzero" d="M37 22c3.785 0 7 3.075 7 7v6h-3v2h-2v-2H9v2H7v-2H4v-6c0-3.785 3.106-7 7-7zm-2-11c2.689 0 5 2.162 5 5v4.778A6.211 6.211 0 0 0 37 20l-2-.001C35 18.286 33.598 17 32 17h-6c-.768 0-1.47.289-2 .764A2.989 2.989 0 0 0 22 17h-6a3 3 0 0 0-3 2.999L11 20c-1.074 0-2.09.279-3 .777V16c0-2.689 2.157-5 5-5zm-13 8c.543 0 1 .5 1 1l-8-.001c0-.612.487-.999 1-.999zm10 .007c.566-.008 1 .48 1 .992h-8c0-.62.487-.999 1-.999z" opacity="1" data-original="#000000" class=""></path></g></svg>