<svg xmlns="http://www.w3.org/2000/svg" version="1.1" xmlns:xlink="http://www.w3.org/1999/xlink" width="512" height="512" x="0" y="0" viewBox="0 0 512.004 512.004" style="enable-background:new 0 0 512 512" xml:space="preserve" class=""><g><path d="M175.682 211.523a58.224 58.224 0 0 1 61.197-2.123l40.042-80.396H96.002c-12.073 0-19.198 13.582-12.349 23.516l56.861 82.449c59.265-39.511 9.487-6.329 35.168-23.446zM368.002 482.004h-97V380.675l83.454-121.008-34.773-23.182a28.18 28.18 0 0 0-31.358-.002c-10.407 6.938-22.98 10.537-36.228 9.654l-16.213 32.554c-2.623 5.268-7.928 8.315-13.438 8.315-11.025 0-18.409-11.662-13.415-21.69l14.428-28.97c-9.359-6.114-21.58-6.231-31.136.138l-34.774 23.183 83.454 121.008v101.329h-97c-8.284 0-15 6.716-15 15s6.716 15 15 15h224c8.284 0 15-6.716 15-15s-6.717-15-15.001-15zM416.002 129.004h-72.021l53.448-107.312c3.693-7.416.676-16.421-6.739-20.114-7.417-3.695-16.422-.676-20.114 6.739-55.252 110.936-46.916 94.137-102.17 205.077a28.398 28.398 0 0 0 3.276-1.87c19.634-13.094 45.009-13.093 64.643.001 26.373 17.578-23.965-15.977 35.165 23.444l56.861-82.449c6.853-9.94-.284-23.516-12.349-23.516z" fill="#ebe9ac" opacity="1" data-original="#000000"></path></g></svg>