<svg xmlns="http://www.w3.org/2000/svg" version="1.1" xmlns:xlink="http://www.w3.org/1999/xlink" width="512" height="512" x="0" y="0" viewBox="0 0 512 512" style="enable-background:new 0 0 512 512" xml:space="preserve" class=""><g><path d="M283.369 203.908c0-13.624-9.33-22.852-24.453-22.852h-36.549v45.7h36.548c15.125.005 24.454-9.224 24.454-22.848z" fill="#ebe9ac" opacity="1" data-original="#000000" class=""></path><path d="M256 6C117.929 6 6 117.929 6 256s111.929 250 250 250 250-111.929 250-250S394.071 6 256 6zm17.915 381.251H152.924v-262.5h118.569c46.546 0 80.51 28.4 80.51 67.182 0 23.456-13.137 44.558-33.192 56.708h.008c24.735 11.727 40.257 35.213 40.257 63.86 0 42.534-36.706 74.75-85.161 74.75z" fill="#ebe9ac" opacity="1" data-original="#000000" class=""></path><path d="M261.649 280.139h-39.284v47.738h39.284c15.66 0 25.9-9.818 25.9-23.978-.001-13.942-10.24-23.76-25.9-23.76z" fill="#ebe9ac" opacity="1" data-original="#000000" class=""></path></g></svg>