<svg xmlns="http://www.w3.org/2000/svg" version="1.1" xmlns:xlink="http://www.w3.org/1999/xlink" width="512" height="512" x="0" y="0" viewBox="0 0 609.806 609.806" style="enable-background:new 0 0 512 512" xml:space="preserve" class=""><g><path fill-rule="evenodd" d="M0 542.548c0 9.906 8.03 17.935 17.935 17.935H591.87c9.905 0 17.935-8.03 17.935-17.935 0-74.931-27.654-107.613-98.645-107.613H98.645C27.654 434.935 0 467.617 0 542.548zm322.838-403.16c157.219 6.888 251.097 104.726 251.097 241.741 0 9.906-8.03 17.935-17.935 17.935H53.806c-9.905 0-17.935-8.03-17.935-17.935 0-137.015 93.877-234.853 251.097-241.741V85.193h-44.831c-4.988 0-8.975-4.053-8.975-9.052V58.374c0-5.076 4.019-9.052 8.975-9.052H367.67c4.988 0 8.975 4.053 8.975 9.052v17.767c0 5.076-4.019 9.052-8.975 9.052h-44.831v54.195z" clip-rule="evenodd" fill="#ebe9ac" opacity="1" data-original="#000000" class=""></path></g></svg>